<?xml version="1.0" encoding="utf-8"?>
<!-- Generator: Adobe Illustrator 25.1.0, SVG Export Plug-In . SVG Version: 6.00 Build 0)  -->
<svg version="1.1" id="Layer_1" xmlns="http://www.w3.org/2000/svg" xmlns:xlink="http://www.w3.org/1999/xlink" x="0px" y="0px"
	 viewBox="0 0 194.3 37.1" style="enable-background:new 0 0 194.3 37.1;" xml:space="preserve">
<style type="text/css">
	.st0{fill:#F03030;}
	.st1{fill:#FFFFFF;}
</style>
<g id="SvgjsG1101" transform="matrix(0.6243181021450473,0,0,0.6243181021450473,0,8)">
	<path class="st0" d="M35,27.8c-7.7-3.1-11.7-3.5-15.8-3.8c-4.1-0.4-8.3-0.7-16.4-4c-0.6,0.9-1.1,2.7-1.5,4.8
		c8.3,2.2,12.4,2,16.5,1.8c4.1-0.2,8.3-0.3,16.5,1.8c2.8,0.7,5,1.5,6.7,2.2C39.5,29.7,37.6,28.8,35,27.8z"/>
	<path class="st0" d="M34,30.6c-8.1-2.1-12-2-16.2-1.8c-4.1,0.2-8.4,0.3-16.7-1.8c-0.3,1.7-0.5,3.4-0.7,5.2c8.2,1,12.2,0.3,16.1-0.4
		c4-0.7,8.2-1.4,16.6-0.3c3.3,0.4,5.8,0.9,7.7,1.5C39.3,32.1,37,31.4,34,30.6z"/>
	<path class="st0" d="M16.8,33.9c-4,0.7-8.1,1.4-16.5,0.4C0.2,36.2,0.1,38,0,39.3c8.4-0.1,12.3-1.3,16.1-2.5
		c3.9-1.2,7.9-2.5,16.5-2.5c2.9,0,5.2,0.1,7,0.4c-1.7-0.4-3.8-0.8-6.5-1.2C24.8,32.5,20.9,33.2,16.8,33.9z"/>
	<path class="st0" d="M79.6,26.6c4,0.2,8.2,0.3,16.5-1.8c-0.4-2.3-0.9-4.1-1.5-4.8c-8.1,3.2-12.3,3.6-16.4,4
		c-4.2,0.4-8.1,0.7-15.8,3.8c-2.5,1-4.5,2-6,2.8c1.7-0.7,3.9-1.4,6.7-2.2C71.3,26.2,75.5,26.4,79.6,26.6z"/>
	<path class="st0" d="M94,17.9L85.3-7.4c-6.3,2.5-9.7,2.8-13,3.1C69-4,65.8-3.7,59.6-1.2c-8.6,3.5-9.1,5.7-9.3,6.9
		c-0.1,0.6-0.3,1.2-1,1.6V36c0,0,0,0,0,0c0-0.1,0.1-0.1,0.1-0.2c0.1-0.2,0.1-0.3,0.2-0.6c0.4-1.8,1-4.9,12.4-9.5
		c7.9-3.2,12.1-3.6,16.2-3.9C82.1,21.4,86.2,21,94,17.9z"/>
	<path class="st0" d="M80.8,31.7c3.9,0.7,8,1.4,16.1,0.4c-0.2-1.8-0.4-3.6-0.6-5.2c-8.4,2.2-12.7,2-16.8,1.8
		c-4.2-0.2-8.1-0.3-16.2,1.8c-3,0.8-5.2,1.5-6.9,2.3c1.9-0.6,4.4-1.1,7.7-1.5C72.7,30.3,76.8,31,80.8,31.7z"/>
	<path class="st0" d="M81.3,36.9c3.8,1.2,7.8,2.4,16.1,2.5c-0.1-1.5-0.2-3.2-0.3-4.9c-8.3,1-12.5,0.3-16.5-0.4
		c-4.1-0.7-8-1.4-16.3-0.3c-2.7,0.3-4.8,0.8-6.5,1.2c1.8-0.2,4.1-0.4,7-0.4C73.4,34.4,77.4,35.6,81.3,36.9z"/>
	<path class="st0" d="M47.9,35.1c0,0.2,0.1,0.3,0.1,0.4V7.3c-0.8-0.4-0.9-1-1-1.6c-0.3-1.2-0.7-3.4-9.3-6.9
		C31.4-3.7,28.3-4,24.9-4.3c-3.3-0.3-6.6-0.6-13-3.1L3.4,17.9c7.8,3.1,11.9,3.5,15.9,3.8c4.1,0.4,8.3,0.7,16.2,3.9
		C46.9,30.2,47.5,33.3,47.9,35.1z"/>
</g>
<g id="SvgjsG1102" transform="matrix(1.5794713998480165,0,0,1.5794713998480165,80.52615903193599,-9.761132979926506)">
	<path class="st1" d="M4.6,18.9c0,0.4,0.3,0.6,1.3,0.7v0.6c-1.5-0.1-3.1-0.1-4.7,0v-0.6c1-0.1,1.3-0.2,1.3-0.7v-7.9l-3.4,9.2
		l-3.9-9.2v8c0,0.4,0.7,0.6,1.8,0.7v0.6c-1.4-0.1-2.8-0.1-4.2,0v-0.6c1.1-0.1,1.7-0.2,1.7-0.7v-8.4c0-0.5-0.5-0.7-1.5-0.8V9.1
		c1.2,0.1,2.3,0.1,3.5,0l3.2,7.6l2.8-7.6c1.2,0.1,2.3,0.1,3.4,0v0.6c-0.9,0.1-1.3,0.2-1.3,0.7C4.6,10.3,4.6,18.9,4.6,18.9z
		 M15.6,11.2v0.6l-0.5,0.1c-0.4,0.1-0.7,0.2-0.9,0.6l-4.2,11.2C10,23.9,9.9,24,9.5,24c-0.5,0-0.6-0.1-0.5-0.3
		c0.3-0.6,1.7-3.4,1.7-3.6c0-0.4-2.2-5.1-3.2-7.7c-0.2-0.4-0.4-0.6-0.6-0.6l-0.5-0.1v-0.6c1.4,0.1,2.9,0.1,4.2,0v0.6l-0.6,0.1
		c-0.3,0-0.6,0.2-0.4,0.6l2.2,5.2l1.9-5.2c0.1-0.4-0.2-0.6-0.6-0.6l-0.5-0.1v-0.6C13.5,11.3,14.4,11.3,15.6,11.2z M23.7,17.4
		c0.9,1.3,1.9,2.2,2.7,2.2L26,20.2c-1.4,0-2.7-0.4-4-2.2l-1.7-2.3l-0.1,0l-0.4,0.1v3.1c0,0.4,0.3,0.6,1.2,0.6v0.6
		c-1.5-0.1-3.1-0.1-4.6,0v-0.6c1-0.1,1.3-0.2,1.3-0.6v-8.4c0-0.5-0.3-0.8-1.2-0.9V9.1c1.6,0.1,3.3,0,4.4,0c3.7,0,4.7,1.4,4.7,3.1
		c0,1.3-0.9,2.5-3.3,3.2L23.7,17.4z M19.7,9.7v5.5l0.4-0.1c2.5-0.4,3.3-1.5,3.3-3c0-1.3-0.7-2.4-2.4-2.4H19.7z M33.8,18.1
		c0.2,0,0.2,0.2,0.1,0.4c-0.5,1-1.4,1.7-3,1.7c-2.4,0-4.3-1.6-4.3-4.6c0-2.9,2-4.6,4.1-4.6c2,0,3.7,1.4,3.7,3.7c0,0.7-0.3,1.1-1,1.1
		h-4.7c0,2.2,0.8,3.8,2.4,3.8c0.9,0,1.5-0.4,2-1.3c0.1-0.2,0.1-0.3,0.3-0.3L33.8,18.1L33.8,18.1z M32.5,15.2c0-2.2-0.5-3.5-1.7-3.5
		c-1.3,0-1.9,1.3-2,3.5C28.8,15.2,32.5,15.2,32.5,15.2z M42.7,18.1c0,0.6,0.4,0.8,1.1,0.7v0.6c-1.6,0.4-2.2,0.9-2.7,0.9
		c-0.3,0-0.5-0.2-0.4-0.5l0.1-1.3c-0.4,0.9-1.2,1.9-2.8,1.9c-1.3,0-2.6-0.6-2.6-2.3c0-1.6,1.1-2.7,5.3-3.6v-0.8
		c0-1.5-0.1-2.1-0.9-2.1c-2.6,0-1.2,2.7-2.9,2.7c-0.6,0-0.9-0.4-0.9-0.8c0-1.3,1.7-2.4,3.9-2.4c2,0,2.9,0.6,2.9,2.7
		C42.7,13.8,42.7,18.1,42.7,18.1z M38.7,19.4c1.1,0,1.7-1.3,1.9-1.9V15c-2.9,0.6-3.2,2.1-3.2,2.9C37.5,18.8,37.9,19.4,38.7,19.4z
		 M52.7,18.1c0,0.6,0.4,0.8,1.1,0.7v0.6c-1.5,0.4-2.2,0.9-2.6,0.9c-0.3,0-0.5-0.2-0.4-0.6l0.1-1c-0.2,0.7-0.9,1.5-2.4,1.5
		c-1.9,0-3.9-1.6-3.9-4.7c0-2.9,2-4.5,3.8-4.5c1.2,0,1.9,0.6,2.3,1.2v-2.2c0-0.6-0.4-0.8-1.1-0.7V8.8c1.6-0.3,2.3-0.9,2.7-0.9
		c0.3,0,0.4,0.2,0.4,0.5L52.7,18.1L52.7,18.1z M48.9,19.7c1,0,1.7-1,1.8-1.9V13c-0.4-0.6-1.1-1.3-2-1.3c-1.3,0-2,1.2-2,3.5
		C46.7,17.6,47.6,19.7,48.9,19.7z M61.1,17.7c0,1.5-1.5,2.6-2.8,2.6c-1.2,0-1.8-0.6-2.4-0.6c-0.2,0-0.4,0.1-0.4,0.4h-0.6l-0.2-2.4
		H55c0.2,0,0.4,0,0.5,0.3c0.3,1,1.6,1.8,2.6,1.8c0.8,0,1.3-0.6,1.3-1.3c0-1-0.8-1.4-2.1-2c-1.2-0.6-2.6-1.4-2.6-3
		c0-1.3,1.2-2.4,2.7-2.4c1.2,0,1.6,0.5,2,0.5c0.2,0,0.4-0.1,0.4-0.4h0.6l0.2,2.3h-0.3c-0.2,0-0.4-0.1-0.5-0.3
		c-0.4-1-1.3-1.7-2.2-1.7c-0.8,0-1.3,0.6-1.3,1.3c0,0.8,0.6,1.2,1.6,1.7C59.1,15.1,61.1,15.9,61.1,17.7z"/>
</g>
<g id="SvgjsG1103" transform="matrix(0.30932967313335163,0,0,0.30932967313335163,80.48651898479365,37.64513599627595)">
	<path class="st0" d="M-31.4-15.5l-4.7,0c-0.3,0-0.5-0.1-0.7-0.3c-0.2-0.2-0.3-0.4-0.3-0.7V-32c0-0.3,0.1-0.5,0.3-0.7
		c0.2-0.2,0.4-0.3,0.7-0.3h3.2c0.6,0,1.1,0.1,1.6,0.3c0.5,0.2,0.9,0.5,1.3,0.9c0.4,0.4,0.7,0.8,0.9,1.3c0.2,0.5,0.3,1,0.3,1.6
		c0,0.9-0.3,1.7-0.8,2.4c0.6,0.2,1.1,0.5,1.6,0.8c0.5,0.3,0.9,0.7,1.2,1.2c0.3,0.5,0.6,1,0.8,1.5c0.2,0.6,0.3,1.1,0.3,1.8
		c0,0.8-0.1,1.5-0.4,2.2s-0.7,1.3-1.2,1.8c-0.5,0.5-1.1,0.9-1.8,1.2S-30.6-15.5-31.4-15.5L-31.4-15.5z M-32.9-31.1h-2.3v4.3h2.5
		c0.2,0,0.5-0.1,0.7-0.2c0.2-0.1,0.4-0.3,0.6-0.5c0.2-0.2,0.3-0.4,0.4-0.7c0.1-0.3,0.2-0.5,0.2-0.8c0-0.3-0.1-0.6-0.2-0.8
		s-0.3-0.5-0.5-0.7c-0.2-0.2-0.4-0.4-0.7-0.5C-32.3-31-32.6-31.1-32.9-31.1z M-31.4-24.8l-3.8,0v7.3h3.8c0.5,0,1-0.1,1.5-0.3
		c0.5-0.2,0.8-0.5,1.2-0.8c0.3-0.3,0.6-0.7,0.8-1.2c0.2-0.5,0.3-0.9,0.3-1.5s-0.1-1-0.3-1.4c-0.2-0.4-0.5-0.8-0.8-1.1
		s-0.7-0.6-1.2-0.7C-30.4-24.7-30.9-24.8-31.4-24.8L-31.4-24.8z M-3.1-15.5c-1.2,0-2.4-0.2-3.4-0.7c-1.1-0.5-2-1.1-2.8-1.9
		c-0.8-0.8-1.4-1.7-1.9-2.8c-0.5-1.1-0.7-2.2-0.7-3.4c0-1.2,0.2-2.3,0.7-3.4c0.5-1.1,1.1-2,1.9-2.8c0.8-0.8,1.7-1.4,2.8-1.9
		c1.1-0.5,2.2-0.7,3.4-0.7c1.2,0,2.3,0.2,3.4,0.7s2,1.1,2.8,1.9s1.4,1.7,1.9,2.8c0.5,1.1,0.7,2.2,0.7,3.4c0,1.2-0.2,2.4-0.7,3.4
		c-0.5,1.1-1.1,2-1.9,2.8c-0.8,0.8-1.7,1.4-2.8,1.9C-0.8-15.7-1.9-15.5-3.1-15.5z M-3.1-31.1c-0.9,0-1.8,0.2-2.6,0.5
		c-0.8,0.4-1.6,0.8-2.2,1.5s-1.1,1.3-1.5,2.2c-0.4,0.8-0.5,1.7-0.5,2.6s0.2,1.8,0.5,2.6c0.4,0.8,0.8,1.6,1.5,2.2
		c0.6,0.6,1.3,1.1,2.2,1.5c0.8,0.4,1.7,0.5,2.6,0.5s1.8-0.2,2.6-0.5c0.8-0.4,1.6-0.8,2.2-1.5c0.6-0.6,1.1-1.3,1.5-2.2
		c0.4-0.8,0.5-1.7,0.5-2.6s-0.2-1.8-0.5-2.6c-0.4-0.8-0.8-1.6-1.5-2.2s-1.3-1.1-2.2-1.5C-1.3-30.9-2.2-31.1-3.1-31.1z M28.7-15.5
		c-1.2,0-2.4-0.2-3.4-0.7c-1.1-0.5-2-1.1-2.8-1.9c-0.8-0.8-1.4-1.7-1.9-2.8c-0.5-1.1-0.7-2.2-0.7-3.4c0-1.2,0.2-2.3,0.7-3.4
		c0.5-1.1,1.1-2,1.9-2.8c0.8-0.8,1.7-1.4,2.8-1.9c1.1-0.5,2.2-0.7,3.4-0.7c1.2,0,2.3,0.2,3.4,0.7c1.1,0.5,2,1.1,2.8,1.9
		c0.8,0.8,1.4,1.7,1.9,2.8c0.5,1.1,0.7,2.2,0.7,3.4c0,1.2-0.2,2.4-0.7,3.4c-0.5,1.1-1.1,2-1.9,2.8c-0.8,0.8-1.7,1.4-2.8,1.9
		C31-15.7,29.9-15.5,28.7-15.5z M28.7-31.1c-0.9,0-1.8,0.2-2.6,0.5c-0.8,0.4-1.6,0.8-2.2,1.5c-0.6,0.6-1.1,1.3-1.5,2.2
		c-0.4,0.8-0.5,1.7-0.5,2.6s0.2,1.8,0.5,2.6c0.4,0.8,0.8,1.6,1.5,2.2c0.6,0.6,1.3,1.1,2.2,1.5c0.8,0.4,1.7,0.5,2.6,0.5
		s1.8-0.2,2.6-0.5c0.8-0.4,1.6-0.8,2.2-1.5c0.6-0.6,1.1-1.3,1.5-2.2c0.4-0.8,0.5-1.7,0.5-2.6s-0.2-1.8-0.5-2.6
		c-0.4-0.8-0.8-1.6-1.5-2.2c-0.6-0.6-1.3-1.1-2.2-1.5C30.5-30.9,29.6-31.1,28.7-31.1z M62.3-15.5c-0.3,0-0.5-0.1-0.7-0.3l-7.5-7.1
		v6.4c0,0.3-0.1,0.5-0.3,0.7c-0.2,0.2-0.4,0.3-0.7,0.3c-0.3,0-0.5-0.1-0.7-0.3c-0.2-0.2-0.3-0.4-0.3-0.7V-32c0-0.3,0.1-0.5,0.3-0.7
		c0.2-0.2,0.4-0.3,0.7-0.3c0.3,0,0.5,0.1,0.7,0.3s0.3,0.4,0.3,0.7v6.4l7.5-7.1c0.2-0.2,0.4-0.3,0.7-0.3c0.3,0,0.5,0.1,0.7,0.3
		c0.2,0.2,0.3,0.4,0.3,0.7c0,0.3-0.1,0.5-0.3,0.7l-7.4,7.1l7.4,7.1c0.2,0.2,0.3,0.4,0.3,0.7c0,0.3-0.1,0.5-0.3,0.7
		C62.8-15.6,62.6-15.5,62.3-15.5z M105.2-15.5c-1.2,0-2.4-0.2-3.4-0.7c-1.1-0.5-2-1.1-2.8-1.9c-0.8-0.8-1.4-1.7-1.9-2.8
		c-0.5-1.1-0.7-2.2-0.7-3.4c0-1.2,0.2-2.3,0.7-3.4c0.5-1.1,1.1-2,1.9-2.8c0.8-0.8,1.7-1.4,2.8-1.9c1.1-0.5,2.2-0.7,3.4-0.7
		c1.2,0,2.3,0.2,3.4,0.7s2,1.1,2.8,1.9c0.8,0.8,1.4,1.7,1.9,2.8c0.5,1.1,0.7,2.2,0.7,3.4c0,1.2-0.2,2.4-0.7,3.4
		c-0.5,1.1-1.1,2-1.9,2.8c-0.8,0.8-1.7,1.4-2.8,1.9C107.5-15.7,106.4-15.5,105.2-15.5z M105.2-31.1c-0.9,0-1.8,0.2-2.6,0.5
		c-0.8,0.4-1.6,0.8-2.2,1.5s-1.1,1.3-1.5,2.2c-0.4,0.8-0.5,1.7-0.5,2.6s0.2,1.8,0.5,2.6c0.4,0.8,0.8,1.6,1.5,2.2
		c0.6,0.6,1.3,1.1,2.2,1.5c0.8,0.4,1.7,0.5,2.6,0.5s1.8-0.2,2.6-0.5c0.8-0.4,1.6-0.8,2.2-1.5c0.6-0.6,1.1-1.3,1.5-2.2
		c0.4-0.8,0.5-1.7,0.5-2.6s-0.2-1.8-0.5-2.6c-0.4-0.8-0.8-1.6-1.5-2.2c-0.6-0.6-1.3-1.1-2.2-1.5C107-30.9,106.1-31.1,105.2-31.1z
		 M133.6-23.2l-0.3,0l0.3-0.5l4,6.7c0.1,0.2,0.1,0.3,0.1,0.5c0,0.3-0.1,0.5-0.3,0.7s-0.4,0.3-0.7,0.3c-0.2,0-0.3,0-0.5-0.1
		s-0.3-0.2-0.4-0.4l-4.3-7.2h-1v6.7c0,0.3-0.1,0.5-0.3,0.7s-0.4,0.3-0.7,0.3c-0.3,0-0.5-0.1-0.7-0.3s-0.3-0.4-0.3-0.7V-32
		c0-0.3,0.1-0.5,0.3-0.7s0.4-0.3,0.7-0.3h3.9c0.7,0,1.3,0.1,1.9,0.4s1.1,0.6,1.6,1.1c0.4,0.4,0.8,1,1.1,1.6c0.3,0.6,0.4,1.2,0.4,1.9
		c0,0.7-0.1,1.3-0.4,1.9c-0.3,0.6-0.6,1.1-1.1,1.6c-0.4,0.4-1,0.8-1.6,1.1S134.3-23.2,133.6-23.2L133.6-23.2z M133.6-31.1h-2.9v5.9
		h2.9c0.4,0,0.8-0.1,1.1-0.2c0.4-0.2,0.7-0.4,0.9-0.6s0.5-0.6,0.6-0.9c0.2-0.4,0.2-0.7,0.2-1.1s-0.1-0.8-0.2-1.1s-0.4-0.7-0.6-0.9
		c-0.3-0.3-0.6-0.5-0.9-0.6C134.4-31,134-31.1,133.6-31.1z M167-18.1c-0.8,0.8-1.8,1.5-2.9,1.9c-1.1,0.4-2.2,0.7-3.4,0.7
		c-1.2,0-2.4-0.2-3.5-0.7c-1.1-0.5-2-1.1-2.8-1.9c-0.8-0.8-1.4-1.7-1.9-2.8c-0.5-1.1-0.7-2.2-0.7-3.5s0.2-2.4,0.7-3.4s1.1-2,1.9-2.7
		s1.7-1.4,2.8-1.8c1.1-0.4,2.2-0.7,3.4-0.7c1.2,0,2.3,0.2,3.4,0.7c1.1,0.4,2,1.1,2.9,1.9c0.2,0.2,0.3,0.4,0.3,0.7s-0.1,0.5-0.3,0.7
		c-0.2,0.2-0.4,0.3-0.7,0.3s-0.5-0.1-0.7-0.3c-0.7-0.7-1.4-1.2-2.2-1.5c-0.8-0.3-1.7-0.5-2.6-0.5c-0.9,0-1.8,0.2-2.7,0.5
		c-0.8,0.3-1.6,0.8-2.2,1.4c-0.6,0.6-1.1,1.3-1.5,2.1c-0.4,0.8-0.5,1.7-0.5,2.7s0.2,1.8,0.5,2.7c0.4,0.8,0.9,1.6,1.5,2.2
		c0.6,0.6,1.4,1.1,2.2,1.5s1.7,0.5,2.7,0.5c0.9,0,1.7-0.1,2.5-0.4c0.8-0.3,1.5-0.7,2.1-1.3v-4.2h-4.5c-0.3,0-0.5-0.1-0.7-0.3
		c-0.2-0.2-0.3-0.4-0.3-0.7c0-0.3,0.1-0.5,0.3-0.7s0.4-0.3,0.7-0.3h5.5c0.3,0,0.5,0.1,0.7,0.3c0.2,0.2,0.3,0.4,0.3,0.7v5.6
		C167.3-18.5,167.2-18.3,167-18.1L167-18.1z M195.8-15.6c-0.1,0.1-0.2,0.1-0.4,0.1c-0.2,0-0.4-0.1-0.5-0.2s-0.3-0.3-0.4-0.4
		l-1.8-4.1h-8.1l-1.8,4.1c-0.1,0.3-0.3,0.4-0.5,0.5s-0.5,0.1-0.8,0c-0.3-0.1-0.4-0.3-0.5-0.5c-0.1-0.3-0.1-0.5,0-0.8l2-4.7l4.7-11
		c0.1-0.2,0.2-0.3,0.4-0.4s0.3-0.2,0.6-0.2c0.2,0,0.4,0.1,0.5,0.2s0.3,0.3,0.4,0.4c1.1,2.6,2.2,5.2,3.4,7.8c1.1,2.6,2.2,5.2,3.4,7.8
		c0.1,0.3,0.1,0.5,0,0.8C196.3-15.9,196.1-15.7,195.8-15.6z M188.8-29.7l-3.2,7.5h6.4L188.8-29.7z M221-15.5c-0.4,0-0.7-0.2-0.8-0.5
		l-8-12.7v12.2c0,0.3-0.1,0.5-0.3,0.7c-0.2,0.2-0.4,0.3-0.7,0.3c-0.3,0-0.5-0.1-0.7-0.3s-0.3-0.4-0.3-0.7V-32c0-0.3,0.1-0.5,0.3-0.7
		s0.4-0.3,0.7-0.3c0.4,0,0.7,0.1,0.8,0.4l8,12.7V-32c0-0.3,0.1-0.5,0.3-0.7s0.4-0.3,0.7-0.3c0.3,0,0.5,0.1,0.7,0.3
		c0.2,0.2,0.3,0.4,0.3,0.7v15.6c0,0.3-0.1,0.5-0.3,0.7C221.5-15.6,221.3-15.5,221-15.5z M238.3-15.5c-0.3,0-0.5-0.1-0.7-0.3
		s-0.3-0.4-0.3-0.7V-32c0-0.3,0.1-0.5,0.3-0.7s0.4-0.3,0.7-0.3c0.3,0,0.5,0.1,0.7,0.3s0.3,0.4,0.3,0.7v15.6c0,0.3-0.1,0.5-0.3,0.7
		C238.8-15.6,238.5-15.5,238.3-15.5z M258.9-15.5c-0.7,0-1.3-0.1-1.9-0.4c-0.6-0.3-1.1-0.6-1.6-1.1c-0.4-0.4-0.8-1-1.1-1.6
		s-0.4-1.2-0.4-1.9c0-0.3,0.1-0.5,0.3-0.7s0.4-0.3,0.7-0.3c0.3,0,0.5,0.1,0.7,0.3c0.2,0.2,0.3,0.4,0.3,0.7c0,0.4,0.1,0.8,0.2,1.1
		c0.2,0.4,0.4,0.7,0.6,0.9s0.6,0.5,0.9,0.6c0.4,0.2,0.7,0.2,1.1,0.2s0.8-0.1,1.1-0.2c0.4-0.2,0.7-0.4,0.9-0.6s0.5-0.6,0.6-0.9
		c0.2-0.4,0.2-0.7,0.2-1.1c0-0.5-0.1-0.9-0.3-1.2c-0.2-0.3-0.5-0.6-0.8-0.8c-0.2-0.1-0.3-0.2-0.6-0.3s-0.4-0.2-0.6-0.3
		c-0.2-0.1-0.5-0.2-0.7-0.3c-0.2-0.1-0.5-0.2-0.7-0.3c-0.5-0.2-1-0.4-1.5-0.6c-0.5-0.2-0.9-0.5-1.3-0.8s-0.7-0.7-1-1.2
		c-0.3-0.5-0.4-1.1-0.4-1.8c0-0.7,0.1-1.3,0.4-1.9c0.3-0.6,0.6-1.1,1.1-1.6c0.4-0.4,1-0.8,1.6-1.1s1.2-0.4,1.9-0.4s1.3,0.1,1.9,0.4
		c0.6,0.3,1.1,0.6,1.6,1.1s0.8,1,1.1,1.6c0.3,0.6,0.4,1.2,0.4,1.9c0,0.3-0.1,0.5-0.3,0.7c-0.2,0.2-0.4,0.3-0.7,0.3
		c-0.3,0-0.5-0.1-0.7-0.3c-0.2-0.2-0.3-0.4-0.3-0.7c0-0.4-0.1-0.8-0.2-1.1c-0.2-0.4-0.4-0.7-0.6-0.9c-0.3-0.3-0.6-0.5-0.9-0.6
		c-0.4-0.2-0.7-0.2-1.1-0.2s-0.8,0.1-1.1,0.2c-0.4,0.2-0.7,0.4-0.9,0.6c-0.3,0.3-0.5,0.6-0.6,0.9s-0.2,0.7-0.2,1.1
		c0,0.4,0.1,0.8,0.3,1.1s0.4,0.6,0.8,0.8c0.4,0.2,0.8,0.4,1.2,0.6l0.7,0.3l0.7,0.3c0.5,0.2,1,0.4,1.5,0.6c0.5,0.2,0.9,0.5,1.3,0.9
		c0.4,0.3,0.7,0.8,1,1.3c0.3,0.5,0.4,1.2,0.4,1.9c0,0.7-0.1,1.3-0.4,1.9c-0.3,0.6-0.6,1.1-1.1,1.6c-0.4,0.4-1,0.8-1.6,1.1
		C260.2-15.6,259.6-15.5,258.9-15.5z M287.2-15.5l-7.6,0c-0.3,0-0.5-0.1-0.7-0.3s-0.3-0.4-0.3-0.7v0v0V-32c0-0.3,0.1-0.5,0.3-0.7
		s0.4-0.3,0.7-0.3h7.6c0.3,0,0.5,0.1,0.7,0.3c0.2,0.2,0.3,0.4,0.3,0.7c0,0.3-0.1,0.5-0.3,0.7c-0.2,0.2-0.4,0.3-0.7,0.3h-6.7v5.7h5.6
		c0.3,0,0.5,0.1,0.7,0.3s0.3,0.4,0.3,0.7c0,0.3-0.1,0.5-0.3,0.7c-0.2,0.2-0.4,0.3-0.7,0.3h-5.6v6h6.7c0.3,0,0.5,0.1,0.7,0.3
		c0.2,0.2,0.3,0.4,0.3,0.7c0,0.3-0.1,0.5-0.3,0.7C287.8-15.6,287.5-15.5,287.2-15.5z M307.1-23.2l-0.3,0l0.3-0.5l4,6.7
		c0.1,0.2,0.1,0.3,0.1,0.5c0,0.3-0.1,0.5-0.3,0.7s-0.4,0.3-0.7,0.3c-0.2,0-0.3,0-0.5-0.1s-0.3-0.2-0.4-0.4l-4.3-7.2h-1v6.7
		c0,0.3-0.1,0.5-0.3,0.7s-0.4,0.3-0.7,0.3c-0.3,0-0.5-0.1-0.7-0.3s-0.3-0.4-0.3-0.7V-32c0-0.3,0.1-0.5,0.3-0.7s0.4-0.3,0.7-0.3h3.9
		c0.7,0,1.3,0.1,1.9,0.4s1.1,0.6,1.6,1.1c0.4,0.4,0.8,1,1.1,1.6c0.3,0.6,0.4,1.2,0.4,1.9c0,0.7-0.1,1.3-0.4,1.9
		c-0.3,0.6-0.6,1.1-1.1,1.6c-0.4,0.4-1,0.8-1.6,1.1S307.8-23.2,307.1-23.2L307.1-23.2z M307.1-31.1h-2.9v5.9h2.9
		c0.4,0,0.8-0.1,1.1-0.2c0.4-0.2,0.7-0.4,0.9-0.6s0.5-0.6,0.6-0.9c0.2-0.4,0.2-0.7,0.2-1.1s-0.1-0.8-0.2-1.1s-0.4-0.7-0.6-0.9
		c-0.3-0.3-0.6-0.5-0.9-0.6C307.9-31,307.5-31.1,307.1-31.1z"/>
</g>
</svg>
