<?xml version="1.0" encoding="utf-8"?>
<!-- Generator: Adobe Illustrator 25.1.0, SVG Export Plug-In . SVG Version: 6.00 Build 0)  -->
<svg version="1.1" id="Layer_1" xmlns="http://www.w3.org/2000/svg" xmlns:xlink="http://www.w3.org/1999/xlink" x="0px" y="0px"
	 viewBox="0 0 1159.7 1157.4" style="enable-background:new 0 0 1159.7 1157.4;" xml:space="preserve">
<style type="text/css">
	.st0{fill:#FFFFFF;stroke:#000000;stroke-width:20;stroke-miterlimit:10;}
</style>
<g>
	<path class="st0" d="M1117.5,421.7c-8,0-15.3,3.3-20.4,8.7c-4.9,5.1-8,12.1-8,19.8v551c0,49.4-40.2,89.6-89.6,89.6H161
		c-49.4,0-89.6-40.2-89.6-89.6V162.8c0-49.4,40.2-89.6,89.6-89.6h537.3c8,0,15.3-3.3,20.4-8.7c5-5.1,8-12.1,8-19.8
		c0-15.7-12.7-28.4-28.4-28.4H161C80.3,16.3,14.5,82,14.5,162.8v838.4c0,80.8,65.7,146.5,146.5,146.5h838.4
		c80.8,0,146.5-65.7,146.5-146.5v-551C1145.9,434.5,1133.2,421.7,1117.5,421.7z"/>
	<path class="st0" d="M1145.9,43.8c0-0.6,0-1.2-0.1-1.8l-0.2-1.3c-0.1-0.5-0.1-1-0.2-1.5c-0.1-0.5-0.2-0.9-0.3-1.4l-0.3-1.3
		c-0.1-0.5-0.3-0.9-0.5-1.3l-0.5-1.3l-0.6-1.3l-0.6-1.3l-0.7-1.2l-0.7-1.2l-0.9-1.2l-0.8-1c-0.4-0.5-0.8-0.9-1.2-1.4l-0.6-0.7
		l-0.1-0.1c-0.6-0.6-1.1-1.1-1.7-1.6l-0.4-0.4c-0.7-0.6-1.5-1.1-2.2-1.6l-1.3-0.8l-1.1-0.6l-1.3-0.6l-1.2-0.6l-1.2-0.5
		c-0.5-0.2-0.9-0.4-1.4-0.5l-1.3-0.3c-0.5-0.1-1-0.3-1.4-0.4c-0.9-0.2-1.8-0.3-2.7-0.4l-0.5,0c-0.8-0.1-1.6-0.1-2.3-0.1l-0.1,0
		H843.9c-15.7,0-28.4,12.7-28.4,28.4c0,15.7,12.7,28.4,28.4,28.4h204.2L889.4,229.6L691.2,424.9c-11.2,11-11.3,29-0.3,40.2
		c5.6,5.6,12.9,8.5,20.3,8.5c7.2,0,14.4-2.7,20-8.2l199.2-196.3L1089,112.6v191.9c0,15.7,12.7,28.4,28.4,28.4
		c15.7,0,28.4-12.7,28.4-28.4V44.7L1145.9,43.8z"/>
</g>
</svg>
